<svg width="200" height="200" viewBox="0 0 200 200" fill="none" xmlns="http://www.w3.org/2000/svg">
  <defs>
    <linearGradient id="bg-marcus" x1="0%" y1="0%" x2="100%" y2="100%">
      <stop offset="0%" style="stop-color:#4facfe"/>
      <stop offset="100%" style="stop-color:#00f2fe"/>
    </linearGradient>
  </defs>

  <circle cx="100" cy="100" r="100" fill="url(#bg-marcus)"/>

  <!-- Face -->
  <circle cx="100" cy="85" r="25" fill="rgba(255,255,255,0.9)"/>

  <!-- Eyes -->
  <circle cx="92" cy="80" r="3" fill="#333"/>
  <circle cx="108" cy="80" r="3" fill="#333"/>

  <!-- Smile -->
  <path d="M 88 90 Q 100 98 112 90" stroke="#333" stroke-width="2" fill="none" stroke-linecap="round"/>

  <!-- Beard -->
  <path d="M 85 95 Q 100 105 115 95 Q 112 100 100 102 Q 88 100 85 95" fill="rgba(0,0,0,0.6)"/>

  <!-- Body -->
  <path d="M 70 130 Q 100 125 130 130 L 130 200 L 70 200 Z" fill="rgba(255,255,255,0.8)"/>

  <!-- Server/Database elements -->
  <rect x="85" y="140" width="30" height="4" fill="rgba(0,0,0,0.2)"/>
  <rect x="85" y="146" width="30" height="4" fill="rgba(0,0,0,0.2)"/>
  <rect x="85" y="152" width="30" height="4" fill="rgba(0,0,0,0.2)"/>
  <circle cx="120" cy="145" r="2" fill="rgba(0,255,0,0.8)"/>
  <circle cx="120" cy="151" r="2" fill="rgba(255,165,0,0.8)"/>
</svg>