<svg width="200" height="200" viewBox="0 0 200 200" fill="none" xmlns="http://www.w3.org/2000/svg">
  <defs>
    <linearGradient id="bg-sarah" x1="0%" y1="0%" x2="100%" y2="100%">
      <stop offset="0%" style="stop-color:#f093fb"/>
      <stop offset="100%" style="stop-color:#f5576c"/>
    </linearGradient>
  </defs>

  <circle cx="100" cy="100" r="100" fill="url(#bg-sarah)"/>

  <!-- Face -->
  <circle cx="100" cy="85" r="25" fill="rgba(255,255,255,0.9)"/>

  <!-- Eyes -->
  <circle cx="92" cy="80" r="3" fill="#333"/>
  <circle cx="108" cy="80" r="3" fill="#333"/>

  <!-- Smile -->
  <path d="M 88 90 Q 100 98 112 90" stroke="#333" stroke-width="2" fill="none" stroke-linecap="round"/>

  <!-- Hair -->
  <path d="M 75 65 Q 100 55 125 65 Q 120 70 100 68 Q 80 70 75 65" fill="rgba(0,0,0,0.8)"/>

  <!-- Body -->
  <path d="M 70 130 Q 100 125 130 130 L 130 200 L 70 200 Z" fill="rgba(255,255,255,0.8)"/>

  <!-- Design elements -->
  <circle cx="85" cy="145" r="4" fill="rgba(0,0,0,0.2)"/>
  <rect x="95" y="142" width="20" height="6" rx="3" fill="rgba(0,0,0,0.2)"/>
  <circle cx="85" cy="155" r="3" fill="rgba(0,0,0,0.2)"/>
  <rect x="95" y="153" width="15" height="4" rx="2" fill="rgba(0,0,0,0.2)"/>
</svg>