<svg width="1920" height="800" viewBox="0 0 1920 800" fill="none" xmlns="http://www.w3.org/2000/svg">
  <defs>
    <linearGradient id="contact-gradient" x1="0%" y1="0%" x2="100%" y2="100%">
      <stop offset="0%" style="stop-color:#f8fafc;stop-opacity:1" />
      <stop offset="50%" style="stop-color:#e2e8f0;stop-opacity:1" />
      <stop offset="100%" style="stop-color:#cbd5e1;stop-opacity:1" />
    </linearGradient>
    <pattern id="contact-grid" width="40" height="40" patternUnits="userSpaceOnUse">
      <path d="M 40 0 L 0 0 0 40" fill="none" stroke="rgba(100,116,139,0.1)" stroke-width="1"/>
    </pattern>
  </defs>

  <rect width="1920" height="800" fill="url(#contact-gradient)"/>
  <rect width="1920" height="800" fill="url(#contact-grid)"/>

  <!-- Subtle geometric elements -->
  <circle cx="200" cy="150" r="60" fill="rgba(99,102,241,0.1)"/>
  <circle cx="1700" cy="200" r="80" fill="rgba(79,70,229,0.1)"/>
  <circle cx="1500" cy="600" r="70" fill="rgba(139,92,246,0.1)"/>
  <circle cx="300" cy="550" r="50" fill="rgba(168,85,247,0.1)"/>

  <!-- Communication elements -->
  <g transform="translate(600, 300)" fill="rgba(99,102,241,0.1)">
    <!-- Email icon -->
    <rect x="0" y="10" width="60" height="40" rx="5"/>
    <path d="M0 15 L30 30 L60 15" stroke="rgba(99,102,241,0.2)" stroke-width="2" fill="none"/>
  </g>

  <g transform="translate(900, 200)" fill="rgba(79,70,229,0.1)">
    <!-- Message bubbles -->
    <circle cx="0" cy="0" r="25"/>
    <circle cx="40" cy="15" r="20"/>
    <circle cx="70" cy="-10" r="15"/>
  </g>

  <g transform="translate(1200, 450)" fill="rgba(139,92,246,0.1)">
    <!-- Connection nodes -->
    <circle cx="0" cy="0" r="8"/>
    <circle cx="30" cy="20" r="8"/>
    <circle cx="-20" cy="30" r="8"/>
    <circle cx="50" cy="-15" r="8"/>
    <line x1="0" y1="0" x2="30" y2="20" stroke="rgba(139,92,246,0.2)" stroke-width="2"/>
    <line x1="30" y1="20" x2="-20" y2="30" stroke="rgba(139,92,246,0.2)" stroke-width="2"/>
    <line x1="-20" y1="30" x2="50" y2="-15" stroke="rgba(139,92,246,0.2)" stroke-width="2"/>
  </g>
</svg>