<svg width="1920" height="1080" viewBox="0 0 1920 1080" fill="none" xmlns="http://www.w3.org/2000/svg">
  <defs>
    <linearGradient id="hero-gradient" x1="0%" y1="0%" x2="100%" y2="100%">
      <stop offset="0%" style="stop-color:#667eea;stop-opacity:0.8" />
      <stop offset="25%" style="stop-color:#764ba2;stop-opacity:0.6" />
      <stop offset="50%" style="stop-color:#f093fb;stop-opacity:0.4" />
      <stop offset="75%" style="stop-color:#f5576c;stop-opacity:0.6" />
      <stop offset="100%" style="stop-color:#4facfe;stop-opacity:0.8" />
    </linearGradient>
    <pattern id="grid" width="60" height="60" patternUnits="userSpaceOnUse">
      <path d="M 60 0 L 0 0 0 60" fill="none" stroke="rgba(255,255,255,0.1)" stroke-width="1"/>
    </pattern>
  </defs>

  <rect width="1920" height="1080" fill="url(#hero-gradient)"/>
  <rect width="1920" height="1080" fill="url(#grid)"/>

  <!-- Abstract geometric shapes -->
  <circle cx="300" cy="200" r="80" fill="rgba(255,255,255,0.1)"/>
  <circle cx="1600" cy="300" r="120" fill="rgba(255,255,255,0.05)"/>
  <circle cx="1400" cy="800" r="100" fill="rgba(255,255,255,0.08)"/>
  <circle cx="200" cy="700" r="60" fill="rgba(255,255,255,0.12)"/>

  <!-- Floating code elements -->
  <g transform="translate(800, 400)" fill="rgba(255,255,255,0.15)">
    <rect x="0" y="0" width="320" height="20" rx="10"/>
    <rect x="0" y="40" width="280" height="20" rx="10"/>
    <rect x="0" y="80" width="350" height="20" rx="10"/>
    <rect x="20" y="120" width="300" height="20" rx="10"/>
    <rect x="20" y="160" width="260" height="20" rx="10"/>
  </g>

  <!-- Laravel logo style elements -->
  <g transform="translate(100, 100)" fill="rgba(255,255,255,0.1)">
    <path d="M50 0 L100 25 L100 75 L50 100 L0 75 L0 25 Z"/>
  </g>

  <g transform="translate(1700, 600)" fill="rgba(255,255,255,0.1)">
    <path d="M30 0 L60 15 L60 45 L30 60 L0 45 L0 15 Z"/>
  </g>
</svg>